<svg width="139" height="48" viewBox="0 0 139 48" fill="none" xmlns="http://www.w3.org/2000/svg">
<path d="M63.2441 37.0156C61.2637 37.9883 58.6797 38.4746 55.4922 38.4746C51.3906 38.4746 48.1328 37.25 45.7188 34.8008C43.3164 32.3398 42.1152 29.0645 42.1152 24.9746C42.1152 20.6738 43.457 17.1582 46.1406 14.4277C48.8359 11.6855 52.3105 10.3145 56.5645 10.3145C59.2246 10.3145 61.4512 10.6602 63.2441 11.3516V16.959C61.4043 15.8809 59.3184 15.3418 56.9863 15.3418C54.3262 15.3418 52.1992 16.1914 50.6055 17.8906C49.0117 19.5898 48.2148 21.8105 48.2148 24.5527C48.2148 27.2246 48.9707 29.375 50.4824 31.0039C51.9941 32.6328 54.0391 33.4473 56.6172 33.4473C59.043 33.4473 61.252 32.8613 63.2441 31.6895V37.0156ZM66.3555 28.3672C66.3555 25.168 67.3105 22.6543 69.2207 20.8262C71.1426 18.998 73.7207 18.084 76.9551 18.084C80.084 18.084 82.5684 18.9863 84.4082 20.791C86.248 22.584 87.168 24.998 87.168 28.0332C87.168 31.2207 86.2246 33.7578 84.3379 35.6445C82.4512 37.5312 79.8965 38.4746 76.6738 38.4746C73.5098 38.4746 70.9961 37.5723 69.1328 35.7676C67.2812 33.9512 66.3555 31.4844 66.3555 28.3672ZM72.1035 28.2969C72.1035 32.1758 73.6855 34.1152 76.8496 34.1152C79.8848 34.1152 81.4023 32.123 81.4023 28.1387C81.4023 24.3418 79.873 22.4434 76.8145 22.4434C75.3262 22.4434 74.166 22.9531 73.334 23.9727C72.5137 24.9922 72.1035 26.4336 72.1035 28.2969ZM90.0156 28.3672C90.0156 25.168 90.9707 22.6543 92.8809 20.8262C94.8027 18.998 97.3809 18.084 100.615 18.084C103.744 18.084 106.229 18.9863 108.068 20.791C109.908 22.584 110.828 24.998 110.828 28.0332C110.828 31.2207 109.885 33.7578 107.998 35.6445C106.111 37.5312 103.557 38.4746 100.334 38.4746C97.1699 38.4746 94.6562 37.5723 92.793 35.7676C90.9414 33.9512 90.0156 31.4844 90.0156 28.3672ZM95.7637 28.2969C95.7637 32.1758 97.3457 34.1152 100.51 34.1152C103.545 34.1152 105.062 32.123 105.062 28.1387C105.062 24.3418 103.533 22.4434 100.475 22.4434C98.9863 22.4434 97.8262 22.9531 96.9941 23.9727C96.1738 24.9922 95.7637 26.4336 95.7637 28.2969ZM133.943 38H127.053L120.584 28.3848H120.514V38H114.836V9.22461H120.514V27.541H120.584L126.648 18.5586H133.416L126.209 27.7344L133.943 38Z" fill="white"/>
<path fill-rule="evenodd" clip-rule="evenodd" d="M6.92419 24.04L5.01418 19.2276L19.1425 23.2947L3.8883 16.387L0.957031 9L1.83283 9.34175L25.8639 19.3252L10.9594 34.2107L7.71629 26.0357L15.5626 27.8978L6.92419 24.04Z" fill="#60E260"/>
<path fill-rule="evenodd" clip-rule="evenodd" d="M0 37.4864L26.8228 36.3008L20.1582 40.0002L0 37.4864Z" fill="#60E260"/>
</svg>
