<svg width="82" height="28" viewBox="0 0 82 28" fill="none" xmlns="http://www.w3.org/2000/svg">
<path d="M37.3144 21.5924C36.1459 22.1598 34.6213 22.4435 32.7407 22.4435C30.3207 22.4435 28.3986 21.7291 26.9742 20.3004C25.5568 18.8649 24.8481 16.9542 24.8481 14.5685C24.8481 12.0597 25.6398 10.0089 27.2232 8.41614C28.8134 6.81653 30.8635 6.01672 33.3733 6.01672C34.9428 6.01672 36.2565 6.21838 37.3144 6.6217V9.8927C36.2289 9.26379 34.9981 8.94934 33.6222 8.94934C32.0527 8.94934 30.7978 9.44495 29.8575 10.4362C28.9171 11.4274 28.447 12.7228 28.447 14.3224C28.447 15.881 28.8929 17.1354 29.7849 18.0856C30.6768 19.0358 31.8833 19.5109 33.4044 19.5109C34.8357 19.5109 36.139 19.1691 37.3144 18.4855V21.5924Z" fill="black"/>
<path d="M39.1501 16.5475C39.1501 14.6813 39.7136 13.215 40.8406 12.1486C41.9745 11.0822 43.4956 10.549 45.4039 10.549C47.25 10.549 48.7158 11.0753 49.8014 12.1281C50.8869 13.1739 51.4296 14.5822 51.4296 16.3527C51.4296 18.212 50.873 19.692 49.7599 20.7926C48.6467 21.8932 47.1394 22.4435 45.238 22.4435C43.3712 22.4435 41.8881 21.9171 40.7887 20.8644C39.6963 19.8048 39.1501 18.3658 39.1501 16.5475ZM42.5415 16.5065C42.5415 18.7692 43.4749 19.9005 45.3417 19.9005C47.1325 19.9005 48.0279 18.7384 48.0279 16.4142C48.0279 14.1993 47.1256 13.0919 45.321 13.0919C44.4429 13.0919 43.7584 13.3893 43.2675 13.984C42.7835 14.5787 42.5415 15.4196 42.5415 16.5065Z" fill="black"/>
<path d="M53.1098 16.5475C53.1098 14.6813 53.6733 13.215 54.8003 12.1486C55.9342 11.0822 57.4553 10.549 59.3636 10.549C61.2097 10.549 62.6755 11.0753 63.761 12.1281C64.8466 13.1739 65.3893 14.5822 65.3893 16.3527C65.3893 18.212 64.8327 19.692 63.7196 20.7926C62.6064 21.8932 61.0991 22.4435 59.1977 22.4435C57.3309 22.4435 55.8478 21.9171 54.7484 20.8644C53.656 19.8048 53.1098 18.3658 53.1098 16.5475ZM56.5012 16.5065C56.5012 18.7692 57.4346 19.9005 59.3014 19.9005C61.0922 19.9005 61.9876 18.7384 61.9876 16.4142C61.9876 14.1993 61.0853 13.0919 59.2807 13.0919C58.4026 13.0919 57.7181 13.3893 57.2272 13.984C56.7432 14.5787 56.5012 15.4196 56.5012 16.5065Z" fill="black"/>
<path d="M79.0275 22.1666H74.962L71.1454 16.5577H71.1039V22.1666H67.754V5.38098H71.1039V16.0656H71.1454L74.7234 10.8258H78.7164L74.4642 16.1783L79.0275 22.1666Z" fill="black"/>
<path fill-rule="evenodd" clip-rule="evenodd" d="M4.08562 14.0233L2.9587 11.2161L11.2945 13.5886L2.29442 9.55906L0.564941 5.25L1.08167 5.44936L15.2602 11.273L6.46644 19.9563L4.55296 15.1875L9.18234 16.2737L4.08562 14.0233Z" fill="black"/>
<path fill-rule="evenodd" clip-rule="evenodd" d="M0 21.8677L15.8257 21.176L11.8935 23.334L0 21.8677Z" fill="black"/>
</svg>
